<?xml version="1.0" encoding="utf-8"?>
<!-- Generator: Adobe Illustrator 13.0.0, SVG Export Plug-In . SVG Version: 6.00 Build 14948)  -->
<!DOCTYPE svg PUBLIC "-//W3C//DTD SVG 1.1//EN" "http://www.w3.org/Graphics/SVG/1.1/DTD/svg11.dtd">
<svg version="1.1" id="Layer_1" xmlns="http://www.w3.org/2000/svg" xmlns:xlink="http://www.w3.org/1999/xlink" x="0px" y="0px"
	 width="297.5px" height="297.5px" viewBox="0 0 297.5 297.5" enable-background="new 0 0 297.5 297.5" xml:space="preserve">
<g id="Layer_1_1_">
</g>
<g id="Layer_2">
	<rect x="12.25" y="12.25" fill="none" stroke="#FFFFFF" stroke-width="4" width="273" height="273"/>
</g>
<g id="Layer_3">
	<rect x="0.25" y="0.25" fill="none" stroke="#FFFFFF" stroke-width="0.5" width="297" height="297"/>
</g>
<g id="Layer_4">
	<g>
		<path fill="#FFFFFF" d="M250.096,249.145c0,0.976-0.294,1.461-0.878,1.461h-71.606c-0.582,0-0.875-0.584-0.875-1.754v-5.699
			c0-1.461,0.633-2.19,1.898-2.19h17.537c1.46,0,2.094-0.878,1.898-2.63c-0.098-0.293-0.196-0.682-0.293-1.17
			c-0.584-1.947-3.799-11.202-9.645-27.768c-6.138-17.047-9.55-26.252-10.229-27.617c-0.684-2.047-1.754-3.068-3.215-3.068h-69.707
			c-1.169,0.291-1.998,0.926-2.484,1.898c-4.873,13.934-8.867,26.257-11.983,36.973c-2.338,7.014-3.799,13.25-4.385,18.705
			c0.195,3.119,1.072,4.677,2.631,4.677h21.921c1.169,0,1.753,0.729,1.753,2.19v5.992c0,0.976-0.488,1.461-1.461,1.461H49.014
			c-1.073,0-1.608-0.485-1.608-1.461v-6.576c0-1.07,0.439-1.606,1.315-1.606h10.961c1.85,0,4.285-2.873,7.307-8.623
			c11.398-26.79,23.137-54.312,35.218-82.563c22.309-50.951,34.974-79.593,37.996-85.927c2.63-5.356,4.723-10.131,6.283-14.321
			c1.266-3.214,2.386-4.918,3.362-5.114c4.87-0.779,10.668-1.9,17.389-3.361c1.17-0.388,1.851-0.584,2.047-0.584
			c0.779,0,1.51,0.39,2.191,1.169c0.68,0.781,1.022,1.706,1.022,2.777c-0.489,0.683-0.949,1.292-1.388,1.827
			c-0.438,0.536-1.439,1.827-2.996,3.873c-1.852,2.436-2.776,4.53-2.776,6.284c0,1.753,0.729,5.458,2.19,11.106
			c1.559,6.43,6.432,19.973,14.615,40.625c1.362,3.411,7.549,20.459,18.559,51.146c10.131,28.254,18.9,50.027,26.304,65.32
			c5.356,10.912,9.157,16.368,11.397,16.368h10.522c0.778,0,1.169,0.729,1.169,2.19v5.99H250.096z M171.621,166.139
			c-1.17-3.507-5.75-16.268-13.737-38.286c-3.507-11.106-7.211-22.747-11.107-34.926c-0.974-3.409-2.143-5.115-3.507-5.115
			c-1.365,0-2.68,1.706-3.945,5.115c-3.703,8.964-7.795,18.95-12.275,29.958c-5.65,13.25-11.643,27.377-17.975,42.379
			c-0.39,1.268-0.584,2.047-0.584,2.338c0.096,0.488,0.486,0.73,1.169,0.73h61.376C171.913,168.332,172.107,167.602,171.621,166.139
			z"/>
	</g>
</g>
<g id="Layer_5">
	<path fill="#FFFFFF" d="M175.75,190c0,2.991-2.83,5.417-6.32,5.417h-57.86c-3.491,0-6.32-2.426-6.32-5.417l0,0
		c0-2.991,2.83-5.417,6.32-5.417h57.86C172.92,184.583,175.75,187.009,175.75,190L175.75,190z"/>
</g>
</svg>
